<svg width="143" height="32" viewBox="0 0 143 32" fill="none" xmlns="http://www.w3.org/2000/svg">
<path fill-rule="evenodd" clip-rule="evenodd" d="M16.4739 0L14.2504 12.5431H24.951L27.1742 0H48.3528L53.2766 12.3256H53.325L62.5376 0H95.0638C101.62 0 103.744 3.79339 103.642 9.82161H103.673L105.405 0H131.82L130.517 7.30065H114.956L114.056 12.4441H127.89L126.659 19.3892H112.823L111.898 24.6983H127.458L126.178 31.9992H99.762L102.549 16.1956C102.543 16.2109 102.532 16.1801 102.526 16.1956C102.04 17.4965 101.396 18.8056 100.586 20.0291C98.7681 22.7787 95.6487 24.1532 91.2237 24.1534H80.2927L78.9183 31.9992H68.0857L73.5749 0.991832H73.5564L57.3537 20.6452L55.3626 31.9992H44.5537L46.5211 20.693L37.6652 2.00354H37.6526L32.3648 31.9992H21.5328L23.6423 20.0056H12.9185L10.8326 31.9992H0L5.64135 0H16.4739ZM83.2793 7.30065L81.5963 16.8531H89.0658C90.1094 16.8531 90.9466 16.5052 91.5793 15.8103C92.2272 15.099 92.6535 13.7635 92.858 11.8041C93.0797 10.0659 93.0396 8.88081 92.7395 8.2487C92.4566 7.6166 91.7914 7.30065 90.7497 7.30065H83.2793Z" fill="white"/>
<path d="M136.905 32C136.905 32 135.63 31.9893 134.355 31.9893C133.082 31.984 131.818 31.984 131.818 31.984C131.818 31.984 132 30.9113 132.183 29.8386C132.367 28.7659 132.554 27.6879 132.554 27.6879L133.718 27.6932L133.298 30.1496L134.118 30.1442L134.5 27.897H135.614L135.221 30.1549L136.062 30.1442L136.494 27.7039L137.663 27.6986C137.663 27.6986 137.47 28.7713 137.281 29.8439C137.088 30.922 136.905 32 136.905 32Z" fill="white"/>
<path d="M137.775 27.0333C137.775 27.0333 136.5 27.028 135.227 27.0226C133.947 27.0173 132.666 27.0119 132.666 27.0119L133.165 24.1532C133.165 24.1532 134.189 23.7669 135.21 23.3808C136.229 23 137.255 22.6191 137.255 22.6191V22.603C137.255 22.603 136.296 22.5977 135.342 22.5923C134.39 22.587 133.431 22.5816 133.431 22.5816L133.757 20.7473C133.757 20.7473 135.038 20.7526 136.324 20.7526C137.603 20.7526 138.89 20.7633 138.89 20.7633L138.379 23.6115C138.379 23.6115 137.343 24.003 136.296 24.3944C135.254 24.7861 134.207 25.1882 134.207 25.1882L134.195 25.1936C134.195 25.1936 135.172 25.2045 136.152 25.2045C137.127 25.2045 138.096 25.2098 138.096 25.2098L137.775 27.0333Z" fill="white"/>
<path d="M139.481 17.5766C139.309 18.5902 138.955 19.2714 138.418 19.6254C137.885 19.9847 137.216 20.1778 136.405 20.1939C135.574 20.2262 134.96 20.0545 134.578 19.6738C134.184 19.2982 134.079 18.5581 134.284 17.464C134.456 16.4502 134.783 15.7475 135.259 15.3668C135.731 14.9805 136.201 14.7767 136.683 14.7393L136.35 16.5843C136.002 16.6165 135.786 16.6969 135.679 16.8309C135.58 16.9597 135.509 17.1474 135.454 17.421C135.408 17.7052 135.436 17.9413 135.541 18.1075C135.647 18.2738 136.058 18.3597 136.782 18.3543C137.365 18.349 137.768 18.2578 137.963 18.0968C138.162 17.9305 138.296 17.7105 138.351 17.4103C138.395 17.1421 138.384 16.9544 138.328 16.8363C138.261 16.7344 138.107 16.6593 137.841 16.6325L137.82 16.6272L137.698 17.3351H136.671L137.137 14.75L139.968 14.7446L139.781 15.7743L139.221 15.9836C139.536 16.2518 139.632 16.772 139.481 17.5766Z" fill="white"/>
<path d="M140.12 13.9132C140.12 13.9132 138.828 13.9079 137.537 13.9025C136.245 13.9025 134.955 13.9025 134.955 13.9025L135.282 12.0628C135.282 12.0628 136.572 12.0683 137.864 12.0737C139.149 12.0737 140.441 12.0844 140.441 12.0844L140.12 13.9132Z" fill="white"/>
<path d="M140.6 11.2105C140.6 11.2105 139.302 11.2105 138.018 11.1998C136.726 11.1944 135.43 11.1998 135.43 11.1998L135.938 8.33574C135.938 8.33574 136.976 7.94944 138.012 7.56334C139.042 7.18258 140.073 6.80163 140.073 6.80163L140.078 6.78558C140.078 6.78558 139.115 6.78023 138.15 6.77488C137.175 6.76953 136.215 6.76417 136.215 6.76417L136.548 4.92444C136.548 4.92444 137.846 4.92979 139.147 4.93514C140.438 4.94049 141.73 4.94585 141.73 4.94585L141.214 7.78334C141.214 7.78334 140.162 8.1855 139.109 8.57161C138.05 8.96325 136.98 9.36541 136.98 9.36541V9.37631C136.98 9.37631 137.966 9.38166 138.958 9.38166C139.944 9.38166 140.933 9.38166 140.933 9.38166L140.6 11.2105Z" fill="white"/>
<path d="M141.855 4.30144C141.855 4.30144 140.56 4.29074 139.267 4.29074C137.966 4.29074 136.664 4.29074 136.664 4.29074C136.664 4.29074 136.857 3.21805 137.046 2.14002C137.239 1.07803 137.429 0.00534902 137.429 0.00534902L138.625 0L138.182 2.44565L139.025 2.4512L139.422 0.203759H140.56L140.143 2.4512L141.013 2.45655L141.45 0.00534902L142.637 0.0107039C142.637 0.0107039 142.442 1.08874 142.249 2.15072C142.054 3.22876 141.855 4.30144 141.855 4.30144Z" fill="white"/>
</svg>
